<svg width="120" height="50" viewBox="0 0 120 50" fill="none" xmlns="http://www.w3.org/2000/svg">
<path d="M1.70532 43.7178V25.8482H6.61306V39.4393H14.7172V43.7178H1.70532Z" fill="#213F71"/>
<path d="M60.1454 33.9526H62.7376C63.0402 33.9526 63.3205 33.8141 63.5811 33.5375C63.8402 33.2603 63.971 32.7615 63.971 32.0396C63.971 31.3016 63.82 30.7984 63.5179 30.5298C63.2154 30.2616 62.9143 30.127 62.6118 30.127H60.1454V33.9526ZM55.2378 43.7178V25.8482H62.939C63.8111 25.8482 64.6166 26.0289 65.3555 26.3894C66.0929 26.7507 66.7266 27.22 67.2558 27.799C67.7834 28.3778 68.1995 29.0408 68.501 29.7873C68.8031 30.5338 68.9541 31.2848 68.9541 32.0396C68.9541 32.8289 68.811 33.5961 68.5267 34.3426C68.2409 35.0895 67.8426 35.7522 67.3303 36.3308C66.8194 36.9098 66.198 37.3717 65.468 37.7149C64.7385 38.059 63.9375 38.2311 63.0648 38.2311H60.1454V43.7178H55.2378Z" fill="#213F71"/>
<path d="M75.7501 33.9526H78.8453C79.1473 33.9526 79.4277 33.7851 79.6888 33.4494C79.9484 33.1139 80.0782 32.6438 80.0782 32.0396C80.0782 31.4192 79.9272 30.9451 79.6251 30.6175C79.3235 30.2905 79.0215 30.127 78.7189 30.127H75.7501V33.9526ZM70.8415 43.7178V25.8482H79.0462C79.9188 25.8482 80.7243 26.0289 81.4627 26.3894C82.2006 26.7507 82.8343 27.22 83.3629 27.799C83.8915 28.3778 84.3066 29.0408 84.6082 29.7873C84.9103 30.5338 85.0613 31.2848 85.0613 32.0396C85.0613 33.0805 84.8347 34.0496 84.3816 34.9467C83.9285 35.8443 83.3002 36.5785 82.4947 37.1488L86.5218 43.7178H80.9839L77.5867 38.2311H75.7501V43.7178H70.8415Z" fill="#213F71"/>
<path d="M91.8316 34.8084C91.8316 35.4125 91.9032 35.9955 92.0458 36.5573C92.1875 37.1195 92.4105 37.6189 92.7131 38.0548C93.0142 38.4915 93.3923 38.844 93.8454 39.1119C94.2985 39.3807 94.8266 39.5147 95.4312 39.5147C96.0516 39.5147 96.5881 39.3763 97.0412 39.0996C97.4943 38.8223 97.8635 38.4618 98.1493 38.0172C98.4336 37.5726 98.6478 37.065 98.7904 36.4943C98.9326 35.9241 99.0046 35.3456 99.0046 34.7581C99.0046 34.1539 98.9291 33.571 98.7781 33.0086C98.6266 32.4468 98.4045 31.9515 98.1113 31.5241C97.8176 31.096 97.444 30.7525 96.9909 30.492C96.5378 30.2319 96.0092 30.1019 95.4055 30.1019C94.7851 30.1019 94.2516 30.2363 93.8073 30.5044C93.3626 30.7731 92.9935 31.1296 92.6998 31.5742C92.4061 32.019 92.1875 32.5222 92.0458 33.0844C91.9032 33.6468 91.8316 34.2213 91.8316 34.8084ZM95.3808 43.8689C94.1055 43.8689 92.9431 43.609 91.8943 43.0885C90.8454 42.5685 89.9481 41.885 89.2018 41.0372C88.4551 40.1903 87.8761 39.2212 87.4645 38.1306C87.0538 37.0399 86.8485 35.9157 86.8485 34.7581C86.8485 33.5837 87.0627 32.4512 87.4901 31.3602C87.9176 30.2699 88.5178 29.3092 89.2897 28.4786C90.0611 27.648 90.9713 26.9851 92.0201 26.4902C93.069 25.9953 94.2229 25.7478 95.481 25.7478C96.7554 25.7478 97.9183 26.0082 98.9671 26.5282C100.015 27.0482 100.913 27.7361 101.66 28.5918C102.406 29.4476 102.981 30.4206 103.384 31.5111C103.786 32.6024 103.988 33.7177 103.988 34.8586C103.988 36.0333 103.774 37.1616 103.346 38.2437C102.918 39.3261 102.326 40.2822 101.571 41.113C100.817 41.9436 99.9108 42.6103 98.8531 43.1135C97.7964 43.6173 96.6385 43.8689 95.3808 43.8689Z" fill="#213F71"/>
<path d="M116.774 31.6876C116.27 31.3852 115.75 31.1173 115.213 30.8821C114.76 30.6806 114.253 30.492 113.69 30.3158C113.128 30.1394 112.579 30.0513 112.042 30.0513C111.605 30.0513 111.258 30.1187 110.998 30.2528C110.737 30.3875 110.607 30.614 110.607 30.9322C110.607 31.1676 110.684 31.3602 110.834 31.5112C110.985 31.6625 111.203 31.8007 111.488 31.9264C111.774 32.0524 112.122 32.1744 112.533 32.2916C112.944 32.4089 113.409 32.5517 113.929 32.7191C114.752 32.9712 115.494 33.2479 116.157 33.5498C116.82 33.8522 117.386 34.2087 117.856 34.6197C118.325 35.031 118.687 35.5297 118.938 36.1172C119.19 36.7046 119.316 37.4176 119.316 38.2561C119.316 39.3304 119.119 40.2321 118.724 40.9619C118.33 41.6916 117.81 42.275 117.164 42.7108C116.518 43.1475 115.788 43.4623 114.975 43.6547C114.16 43.8473 113.342 43.9443 112.52 43.9443C111.866 43.9443 111.194 43.894 110.507 43.7932C109.819 43.6927 109.135 43.5502 108.456 43.3651C107.776 43.181 107.122 42.963 106.493 42.7108C105.863 42.4592 105.28 42.174 104.743 41.8555L106.857 37.5514C107.445 37.9209 108.057 38.2482 108.695 38.5334C109.232 38.7849 109.84 39.0115 110.52 39.2128C111.199 39.4143 111.891 39.5147 112.596 39.5147C113.133 39.5147 113.505 39.4438 113.716 39.3009C113.926 39.1586 114.031 38.9697 114.031 38.7347C114.031 38.4826 113.926 38.2688 113.716 38.0926C113.505 37.9164 113.217 37.7618 112.847 37.6274C112.479 37.4928 112.055 37.359 111.576 37.2244C111.099 37.09 110.591 36.931 110.054 36.7465C109.265 36.4781 108.586 36.1885 108.016 35.8779C107.445 35.5677 106.975 35.2151 106.606 34.8208C106.236 34.4267 105.964 33.9777 105.788 33.4745C105.611 32.9712 105.523 32.3923 105.523 31.7377C105.523 30.748 105.704 29.8755 106.064 29.1203C106.425 28.3654 106.916 27.7361 107.537 27.2329C108.157 26.7292 108.867 26.348 109.664 26.0875C110.46 25.8276 111.304 25.6974 112.193 25.6974C112.847 25.6974 113.485 25.7605 114.105 25.8862C114.726 26.0121 115.327 26.1718 115.905 26.3644C116.484 26.5573 117.025 26.7671 117.529 26.9937C118.032 27.22 118.485 27.4342 118.888 27.6357L116.774 31.6876Z" fill="#213F71"/>
<path d="M21.4119 39.4393V36.6204H24.5877L24.8856 35.9157L26.2695 32.6437H21.4119V30.127H27.334L29.1436 25.8482H16.5043V43.7178H27.2767L28.4776 39.4393H21.4119Z" fill="#213F71"/>
<path d="M47.4001 31.2975C47.0141 30.2153 46.4438 29.2714 45.6886 28.4659C44.9336 27.6608 43.9937 27.0232 42.8696 26.5533C41.7454 26.0836 40.445 25.8482 38.9687 25.8482H37.8927L37.6093 26.5396L36.1386 30.127H38.9687C39.5891 30.127 40.1515 30.2404 40.6547 30.4668C41.1583 30.6935 41.5819 31.0079 41.9261 31.4107C42.2698 31.8131 42.5338 32.3001 42.7189 32.8702C42.903 33.4409 42.9955 34.0702 42.9955 34.7581C42.9955 35.4293 42.9074 36.0501 42.7312 36.6204C42.5554 37.191 42.2949 37.686 41.9512 38.1055C41.607 38.5249 41.1836 38.8519 40.6804 39.0867C40.1766 39.3221 39.6059 39.4393 38.9687 39.4393H34.9429L32.7073 43.7178H38.9687C40.3278 43.7178 41.5613 43.504 42.6686 43.0761C43.776 42.6483 44.7234 42.0441 45.5122 41.2636C46.3011 40.4837 46.9092 39.5442 47.337 38.4453C47.7651 37.3461 47.9787 36.1172 47.9787 34.7581C47.9787 33.5334 47.7857 32.3793 47.4001 31.2975Z" fill="#213F71"/>
<path d="M27.3432 50L36.4112 32.645H33.1105L35.8941 25.855H31.0554L26.503 36.6189H26.5481H31.0988L27.3432 50Z" fill="#1775BC"/>
<path d="M4.3743 22H0.551936L6.3761 5.12888H10.9728L16.7887 22H12.9664L8.74036 8.98419H8.60856L4.3743 22ZM4.1354 15.3685H13.1641V18.1529H4.1354V15.3685ZM17.8915 5.12888H22.2905L26.9366 16.4642H27.1343L31.7805 5.12888H36.1795V22H32.7196V11.0189H32.5796L28.2135 21.9176H25.8575L21.4914 10.9778H21.3514V22H17.8915V5.12888ZM38.1904 22V5.12888H49.5587V8.06979H41.7574V12.0899H48.9738V15.0308H41.7574V19.0591H49.5916V22H38.1904ZM51.4666 22V5.12888H58.1228C59.397 5.12888 60.4843 5.35679 61.385 5.81262C62.2912 6.26295 62.9804 6.90276 63.4527 7.73204C63.9305 8.55582 64.1694 9.52514 64.1694 10.64C64.1694 11.7603 63.9278 12.7242 63.4445 13.5315C62.9612 14.3333 62.261 14.9484 61.3438 15.3768C60.4322 15.8051 59.3283 16.0193 58.0322 16.0193H53.5755V13.1525H57.4556C58.1366 13.1525 58.7022 13.0592 59.1526 12.8725C59.6029 12.6857 59.9379 12.4056 60.1576 12.0322C60.3827 11.6587 60.4953 11.1947 60.4953 10.64C60.4953 10.0798 60.3827 9.60752 60.1576 9.22309C59.9379 8.83866 59.6002 8.54759 59.1443 8.34988C58.694 8.14668 58.1256 8.04508 57.4391 8.04508H55.0336V22H51.4666ZM60.5777 14.3223L64.7708 22H60.8331L56.7306 14.3223H60.5777ZM69.3293 5.12888V22H65.7623V5.12888H69.3293ZM86.2219 11.0354H82.6137C82.5478 10.5686 82.4133 10.154 82.2101 9.7915C82.0069 9.42354 81.746 9.11051 81.4275 8.85239C81.1089 8.59427 80.741 8.39656 80.3236 8.25926C79.9117 8.12196 79.4641 8.05332 78.9808 8.05332C78.1076 8.05332 77.347 8.27025 76.6989 8.7041C76.0509 9.13247 75.5484 9.75855 75.1914 10.5823C74.8344 11.4006 74.656 12.3947 74.656 13.5644C74.656 14.7672 74.8344 15.7777 75.1914 16.596C75.5539 17.4143 76.0591 18.0321 76.7072 18.4495C77.3552 18.8669 78.1049 19.0756 78.9561 19.0756C79.4339 19.0756 79.876 19.0124 80.2824 18.8861C80.6943 18.7598 81.0595 18.5758 81.378 18.3342C81.6966 18.087 81.9602 17.7877 82.1689 17.4362C82.3831 17.0847 82.5313 16.6838 82.6137 16.2335L86.2219 16.25C86.1285 17.0243 85.8951 17.7712 85.5217 18.4907C85.1537 19.2046 84.6567 19.8444 84.0306 20.4101C83.41 20.9703 82.6686 21.4151 81.8064 21.7446C80.9497 22.0686 79.9804 22.2307 78.8984 22.2307C77.3937 22.2307 76.0481 21.8902 74.8619 21.2092C73.6811 20.5282 72.7475 19.5424 72.061 18.2518C71.38 16.9612 71.0395 15.3987 71.0395 13.5644C71.0395 11.7247 71.3855 10.1595 72.0775 8.86886C72.7695 7.57826 73.7086 6.59521 74.8948 5.91971C76.0811 5.23871 77.4156 4.89822 78.8984 4.89822C79.876 4.89822 80.7822 5.03551 81.6169 5.31011C82.4572 5.5847 83.2014 5.98561 83.8494 6.51284C84.4974 7.03457 85.0247 7.67437 85.4311 8.43226C85.843 9.19014 86.1066 10.0579 86.2219 11.0354ZM90.4426 22H86.6203L92.4444 5.12888H97.0412L102.857 22H99.0347L94.8087 8.98419H94.6769L90.4426 22ZM90.2037 15.3685H99.2324V18.1529H90.2037V15.3685ZM118.071 5.12888V22H114.99L107.65 11.3814H107.527V22H103.96V5.12888H107.09L114.372 15.7392H114.521V5.12888H118.071Z" fill="#1775BC"/>
</svg>
